<svg width="140" height="34" viewBox="0 0 140 34" fill="none" xmlns="http://www.w3.org/2000/svg">
<path fill-rule="evenodd" clip-rule="evenodd" d="M134.712 20.4069C135.583 20.4069 136.174 20.2806 136.484 20.0279C136.794 19.7557 136.949 19.4447 136.949 19.0948C136.949 18.7255 136.813 18.4436 136.542 18.2492C136.29 18.0354 135.922 17.841 135.438 17.666C134.954 17.4911 134.382 17.2773 133.724 17.0245C133.085 16.7524 132.474 16.4414 131.893 16.0915C131.312 15.7221 130.837 15.275 130.469 14.7502C130.121 14.2059 129.946 13.545 129.946 12.7674C129.946 11.5039 130.431 10.5416 131.399 9.88072C132.368 9.20035 133.646 8.86017 135.235 8.86017C136.048 8.86017 136.833 8.94765 137.588 9.1226C138.363 9.29755 138.944 9.5211 139.332 9.79324L138.198 12.3009C137.966 12.0676 137.579 11.8538 137.036 11.6594C136.513 11.465 135.884 11.3678 135.148 11.3678C133.772 11.3678 133.085 11.7857 133.085 12.6216C133.085 13.0298 133.23 13.3603 133.52 13.613C133.83 13.8463 134.227 14.0504 134.712 14.2253C135.215 14.3808 135.758 14.5752 136.339 14.8085C137.521 15.275 138.421 15.8193 139.041 16.4414C139.68 17.044 140 17.8507 140 18.8615C140 19.7752 139.758 20.5333 139.274 21.1359C138.789 21.7385 138.14 22.1856 137.327 22.4772C136.533 22.7493 135.661 22.8854 134.712 22.8854H128.07C126.6 22.8854 125.4 21.7068 125.367 20.232C125.174 20.6596 124.844 21.0776 124.379 21.4858C123.934 21.894 123.391 22.2342 122.752 22.5063C122.113 22.759 121.406 22.8854 120.631 22.8854C119.449 22.8854 118.345 22.6035 117.319 22.0398C116.311 21.4761 115.498 20.6694 114.878 19.6196C114.258 18.5699 113.948 17.3161 113.948 15.8582C113.948 14.4586 114.21 13.2339 114.733 12.1842C115.275 11.1345 116.03 10.3181 116.999 9.73493C117.987 9.15176 119.159 8.86017 120.515 8.86017C121.328 8.86017 122.065 9.00596 122.723 9.29755C123.401 9.56969 123.963 9.90988 124.408 10.3181C124.873 10.7069 125.183 11.0859 125.338 11.4553L125.396 9.21007H128.389V19.232C128.389 19.8231 128.861 20.3051 129.45 20.3154L134.712 20.4069ZM123.101 19.7654C122.52 20.0959 121.871 20.2611 121.154 20.2611C119.856 20.2611 118.878 19.8432 118.219 19.0073C117.58 18.1714 117.261 17.1315 117.261 15.8874C117.261 14.6627 117.58 13.6324 118.219 12.7966C118.878 11.9607 119.856 11.5428 121.154 11.5428C121.871 11.5428 122.52 11.7274 123.101 12.0968C123.701 12.4467 124.176 12.9521 124.525 13.613C124.893 14.2545 125.077 15.0126 125.077 15.8874V16.0915C125.077 16.9468 124.893 17.6855 124.525 18.3075C124.176 18.9296 123.701 19.4155 123.101 19.7654Z" fill="#1B3841"/>
<path d="M109.729 22.863C109.265 22.863 108.889 22.4857 108.889 22.0202V11.7262C108.889 10.3298 110.017 9.19789 111.408 9.19789C111.872 9.19789 112.248 9.57521 112.248 10.0407V20.3347C112.248 21.731 111.12 22.863 109.729 22.863ZM110.569 6.69845C109.949 6.69845 109.429 6.495 109.009 6.08812C108.609 5.68123 108.409 5.17747 108.409 4.57683C108.409 4.03431 108.609 3.5693 109.009 3.18179C109.429 2.79428 109.949 2.60053 110.569 2.60053C111.188 2.60053 111.698 2.79428 112.098 3.18179C112.518 3.5693 112.728 4.03431 112.728 4.57683C112.728 5.17747 112.518 5.68123 112.098 6.08812C111.698 6.495 111.188 6.69845 110.569 6.69845Z" fill="#1B3841"/>
<path d="M90.4848 22.863V1.30026H95.5946C97.4999 1.30026 99.1166 1.51432 100.445 1.94243C101.792 2.37055 102.898 2.94461 103.764 3.66462C104.631 4.36517 105.304 5.17275 105.785 6.08736C106.286 6.98251 106.632 7.91658 106.825 8.88956C107.017 9.84309 107.113 10.7674 107.113 11.6626C107.113 13.0053 106.921 14.3383 106.536 15.6616C106.17 16.9654 105.554 18.1524 104.688 19.2227C103.822 20.293 102.658 21.1492 101.195 21.7914C99.7517 22.4335 97.9426 22.863 95.7678 22.863H90.4848ZM93.7181 19.8649H96.1142C97.5384 19.8649 98.7317 19.6411 99.694 19.1935C100.675 18.7459 101.455 18.1427 102.032 17.3837C102.629 16.6054 103.052 15.7394 103.303 14.7859C103.572 13.8129 103.707 12.8204 103.707 11.8085C103.707 10.4269 103.466 9.162 102.985 8.01388C102.504 6.84629 101.705 5.91222 100.589 5.21167C99.4919 4.51112 98.0003 4.16085 96.1142 4.16085H93.7181V19.8649Z" fill="#1B3841"/>
<path d="M19.6246 22.8993C20.9618 22.8993 22.2453 22.6685 23.4376 22.2444C24.1775 21.9812 24.8823 21.6436 25.543 21.2405C28.2093 19.6139 30.1586 16.9215 30.8034 13.7527C30.9548 13.0087 31.0343 12.2385 31.0343 11.4497C31.0343 10.7405 30.9701 10.0464 30.8471 9.3729C30.3975 6.91023 29.1627 4.72299 27.4127 3.08208C26.2174 1.96132 24.7818 1.09543 23.1919 0.57074C22.0696 0.200367 20.8705 0 19.6246 0C14.6948 1.4559e-07 10.4953 3.13748 8.90065 7.53117L9.47004 8.52083C11.9152 7.10415 14.3479 5.25048 17.0261 4.27366C19.4789 3.379 22.2505 3.85857 24.2855 5.4253C25.1794 6.11355 26.3764 6.65229 26.8932 7.65703C27.409 8.65969 27.1668 9.93894 27.217 11.0662C27.3213 13.409 26.3416 15.755 24.5174 17.2944C22.3699 19.1066 19.4858 20.3098 17.0609 21.7147L17.6435 22.7273C18.287 22.8404 18.9489 22.8993 19.6246 22.8993Z" fill="#24B6D3"/>
<path d="M9.90469 19.0485C7.20907 20.5955 4.32021 21.7755 1.31425 22.5574L0 22.8993C4.12796 20.6644 7.86706 17.7719 11.0714 14.3347L12.1496 13.1782L14.1314 16.6228L9.90469 19.0485Z" fill="#24B6D3"/>
<path d="M76.1701 22.8858C74.9884 22.8858 73.8843 22.6039 72.8576 22.0402C71.8503 21.4764 71.0367 20.6697 70.4169 19.62C69.797 18.5703 69.487 17.3165 69.487 15.8586C69.487 14.4395 69.7486 13.2149 70.2716 12.1846C70.814 11.1349 71.5694 10.3185 72.538 9.73529C73.5259 9.15212 74.6979 8.86054 76.0538 8.86054C76.8287 8.86054 77.5551 8.99661 78.2331 9.26876C78.9111 9.52146 79.4922 9.86164 79.9765 10.2893C80.4608 10.717 80.6642 11.1835 80.8773 11.6889V1.30026H83.9573V22.863H80.9644L80.9063 20.2323C80.7126 20.66 80.3833 21.0779 79.9184 21.4862C79.4728 21.8944 78.9305 22.2346 78.2912 22.5067C77.652 22.7594 76.9449 22.8858 76.1701 22.8858ZM76.6931 20.2323C77.4098 20.2323 78.0588 20.0671 78.6399 19.7366C79.2404 19.3867 79.715 18.9008 80.0637 18.2787C80.4317 17.6567 80.6157 16.918 80.6157 16.0627V15.8586C80.6157 14.9838 80.4317 14.2257 80.0637 13.5842C79.715 12.9233 79.2404 12.4179 78.6399 12.068C78.0588 11.6986 77.4098 11.514 76.6931 11.514C75.3952 11.514 74.417 11.9319 73.7584 12.7678C73.1191 13.6036 72.7995 14.6339 72.7995 15.8586C72.7995 17.1027 73.1191 18.1426 73.7584 18.9785C74.417 19.8144 75.3952 20.2323 76.6931 20.2323Z" fill="#1B3841"/>
<path fill-rule="evenodd" clip-rule="evenodd" d="M64.5298 22.0495C64.5298 22.4988 64.8933 22.863 65.3417 22.863C67.7775 22.863 67.7775 21.7704 67.7775 20.4225V9.58398C67.7775 9.13469 67.414 8.77048 66.9656 8.77048C64.9738 8.77048 64.5298 9.43126 64.5298 11.211V22.0495Z" fill="#1B3841"/>
<path d="M39.0131 22.8854C37.8315 22.8854 36.7273 22.6035 35.7006 22.0398C34.6933 21.4761 33.8798 20.6694 33.2599 19.6196C32.64 18.5699 32.3301 17.3161 32.3301 15.8582C32.3301 14.4586 32.5916 13.2339 33.1146 12.1842C33.657 11.1345 34.4125 10.3181 35.381 9.73493C36.3689 9.15176 37.5409 8.86017 38.8969 8.86017C39.7105 8.86017 40.4466 9.00596 41.1052 9.29755C41.7832 9.56969 42.3449 9.90988 42.7905 10.3181C43.2554 10.7069 43.5653 11.0859 43.7203 11.4553L43.7456 10.4766C43.7638 9.77185 44.3384 9.21007 45.0409 9.21007H46.1234C46.4812 9.21007 46.7712 9.50115 46.7712 9.86021V21.5627C46.7712 22.2808 46.1911 22.863 45.4755 22.863H43.8074L43.7493 20.232C43.5556 20.6596 43.2263 21.0776 42.7614 21.4858C42.3159 21.894 41.7735 22.2342 41.1342 22.5063C40.495 22.759 39.7879 22.8854 39.0131 22.8854ZM39.5361 20.2611C40.2528 20.2611 40.9018 20.0959 41.4829 19.7654C42.0834 19.4155 42.558 18.9296 42.9067 18.3075C43.2747 17.6855 43.4588 16.9468 43.4588 16.0915V15.8874C43.4588 15.0126 43.2747 14.2545 42.9067 13.613C42.558 12.9521 42.0834 12.4467 41.4829 12.0968C40.9018 11.7274 40.2528 11.5428 39.5361 11.5428C38.2383 11.5428 37.26 11.9607 36.6014 12.7966C35.9621 13.6324 35.6425 14.6627 35.6425 15.8874C35.6425 17.1315 35.9621 18.1714 36.6014 19.0073C37.26 19.8432 38.2383 20.2611 39.5361 20.2611Z" fill="#1B3841"/>
<path d="M108.422 32.7233C108.175 32.7233 107.955 32.6623 107.761 32.5404C107.567 32.4184 107.414 32.2452 107.303 32.0209C107.192 31.7927 107.136 31.5231 107.136 31.2123C107.136 30.8975 107.192 30.6259 107.303 30.3977C107.417 30.1695 107.572 29.9944 107.766 29.8724C107.964 29.7504 108.186 29.6894 108.432 29.6894C108.678 29.6894 108.899 29.7504 109.093 29.8724C109.291 29.9944 109.445 30.1695 109.556 30.3977C109.671 30.622 109.728 30.8896 109.728 31.2005C109.728 31.5153 109.671 31.7868 109.556 32.015C109.442 32.2433 109.286 32.4184 109.088 32.5404C108.89 32.6623 108.668 32.7233 108.422 32.7233ZM108.417 32.3043C108.569 32.3043 108.713 32.2669 108.848 32.1921C108.984 32.1134 109.093 31.9934 109.176 31.832C109.263 31.6668 109.306 31.4582 109.306 31.2064C109.306 30.9506 109.265 30.742 109.181 30.5807C109.098 30.4193 108.989 30.3013 108.854 30.2265C108.722 30.1478 108.58 30.1085 108.427 30.1085C108.274 30.1085 108.132 30.1478 108 30.2265C107.868 30.3013 107.761 30.4213 107.678 30.5866C107.598 30.7479 107.558 30.9545 107.558 31.2064C107.558 31.4621 107.598 31.6707 107.678 31.832C107.757 31.9934 107.861 32.1134 107.99 32.1921C108.122 32.2669 108.264 32.3043 108.417 32.3043Z" fill="#1B3841"/>
<path d="M103.316 32.7233C103.044 32.7233 102.806 32.6604 102.601 32.5345C102.397 32.4085 102.237 32.2334 102.121 32.0091C102.009 31.7809 101.954 31.5172 101.954 31.2182C101.954 30.9152 102.009 30.6495 102.121 30.4213C102.237 30.1891 102.397 30.0101 102.601 29.8842C102.806 29.7543 103.044 29.6894 103.316 29.6894C103.603 29.6894 103.854 29.7602 104.07 29.9019C104.286 30.0396 104.443 30.2324 104.539 30.4803L104.154 30.622C104.098 30.4646 103.996 30.3406 103.847 30.2501C103.702 30.1557 103.532 30.1085 103.339 30.1085C103.149 30.1085 102.983 30.1537 102.842 30.2442C102.704 30.3347 102.596 30.4626 102.518 30.6279C102.443 30.7932 102.406 30.988 102.406 31.2123C102.406 31.5428 102.49 31.8084 102.657 32.0091C102.825 32.2059 103.048 32.3043 103.327 32.3043C103.517 32.3043 103.687 32.259 103.836 32.1685C103.985 32.078 104.094 31.956 104.165 31.8025L104.545 31.9442C104.444 32.1882 104.286 32.379 104.07 32.5167C103.854 32.6545 103.603 32.7233 103.316 32.7233Z" fill="#1B3841"/>
<path d="M92.2186 29.3634C92.2186 29.143 92.2542 28.9567 92.3254 28.8044C92.603 28.21 93.6382 28.3559 94.1555 28.3957V28.7984C93.6233 28.7534 92.6633 28.6327 92.6633 29.3634V29.6894L93.6539 29.6894V30.1101L92.6633 30.1101V32.7233H92.2186V30.1101H91.5877V29.6894H92.2186V29.3634Z" fill="#1B3841"/>
<path d="M88.9963 28.3891V28.7673L87.9165 29.3916V29.0393L88.9963 28.3891ZM88.5623 32.7233L88.5245 32.141C88.4365 32.3251 88.3065 32.4692 88.1345 32.5733C87.9626 32.6733 87.7446 32.7233 87.4804 32.7233C87.254 32.7233 87.0611 32.6893 86.9017 32.6213C86.7424 32.5532 86.6187 32.4572 86.5306 32.3331C86.4468 32.2051 86.4048 32.055 86.4048 31.8829C86.4048 31.6308 86.5034 31.4247 86.7004 31.2646C86.8975 31.1005 87.1827 31.0005 87.5559 30.9644L88.5245 30.8624V30.6739C88.5245 30.5058 88.4595 30.3717 88.3295 30.2717C88.1996 30.1676 88.0234 30.1156 87.8012 30.1156C87.5831 30.1156 87.4007 30.1636 87.254 30.2597C87.1114 30.3557 87.0128 30.4938 86.9583 30.6739L86.5306 30.5298C86.6145 30.2657 86.7675 30.0596 86.9898 29.9115C87.2162 29.7634 87.4909 29.6894 87.8138 29.6894C88.187 29.6894 88.4763 29.7814 88.6818 29.9655C88.8914 30.1456 88.9963 30.3917 88.9963 30.7039V32.7233H88.5623ZM88.5245 31.2466L87.5496 31.3546C87.3399 31.3787 87.1806 31.4347 87.0716 31.5227C86.9625 31.6068 86.908 31.7188 86.908 31.8589C86.908 31.999 86.9604 32.111 87.0653 32.1951C87.1743 32.2791 87.3294 32.3211 87.5307 32.3211C87.7613 32.3211 87.95 32.2771 88.0968 32.1891C88.2436 32.101 88.3505 31.983 88.4176 31.8349C88.4889 31.6828 88.5245 31.5187 88.5245 31.3426V31.2466Z" fill="#1B3841"/>
<path d="M81.6538 29.6894H82.1159L82.1427 30.1492C82.232 30.0406 82.3391 29.9482 82.4641 29.8718C82.5935 29.7955 82.7342 29.7432 82.8859 29.7151C83.0422 29.683 83.2074 29.6809 83.3815 29.7091V30.1612C83.194 30.1291 83.0243 30.1291 82.8726 30.1612C82.7252 30.1934 82.598 30.2537 82.4909 30.3421C82.3837 30.4305 82.3011 30.543 82.2431 30.6797C82.1851 30.8123 82.1561 30.967 82.1561 31.1439V32.7233H81.6538V29.6894Z" fill="#1B3841"/>
<path d="M68.6966 29.6894H69.1586L69.1854 30.1492C69.2747 30.0406 69.3818 29.9482 69.5068 29.8718C69.6363 29.7955 69.7769 29.7432 69.9287 29.7151C70.0849 29.683 70.2501 29.6809 70.4242 29.7091V30.1612C70.2367 30.1291 70.0671 30.1291 69.9153 30.1612C69.768 30.1934 69.6408 30.2537 69.5336 30.3421C69.4265 30.4305 69.3439 30.543 69.2859 30.6797C69.2278 30.8123 69.1988 30.967 69.1988 31.1439V32.7233H68.6966V29.6894Z" fill="#1B3841"/>
<path d="M64.1932 32.7233C63.8943 32.7233 63.6275 32.6564 63.3927 32.5226C63.1622 32.3889 62.9807 32.2059 62.8484 31.9737C62.716 31.7415 62.6499 31.4759 62.6499 31.1768C62.6499 30.8896 62.716 30.6338 62.8484 30.4095C62.9807 30.1852 63.1622 30.0101 63.3927 29.8842C63.6232 29.7543 63.8858 29.6894 64.1804 29.6894C64.4707 29.6894 64.7289 29.7484 64.9552 29.8665C65.1857 29.9845 65.3651 30.1478 65.4931 30.3564C65.6212 30.5649 65.681 30.803 65.6724 31.0706C65.6724 31.1139 65.6703 31.1591 65.666 31.2064C65.6618 31.2536 65.6575 31.3047 65.6532 31.3598H63.175C63.1835 31.5448 63.2326 31.7081 63.3223 31.8497C63.4119 31.9914 63.5293 32.1036 63.6745 32.1862C63.8239 32.2649 63.9925 32.3043 64.1804 32.3043C64.428 32.3043 64.6372 32.261 64.8079 32.1744C64.983 32.0878 65.1089 31.9639 65.1858 31.8025L65.602 31.956C65.4739 32.2039 65.2882 32.3948 65.0449 32.5285C64.8015 32.6584 64.5176 32.7233 64.1932 32.7233ZM65.1473 30.9762C65.1516 30.8069 65.111 30.6574 65.0257 30.5276C64.9445 30.3977 64.8293 30.2954 64.6799 30.2206C64.5304 30.1459 64.3575 30.1085 64.1612 30.1085C63.9904 30.1085 63.8346 30.1459 63.6937 30.2206C63.5528 30.2954 63.4354 30.3997 63.3415 30.5335C63.2518 30.6633 63.1985 30.8109 63.1814 30.9762H65.1473Z" fill="#1B3841"/>
<path d="M57.467 29.6894H57.8947L57.9195 30.1561C58.0187 30.0085 58.1489 29.8948 58.3101 29.8151C58.4713 29.7313 58.6594 29.6894 58.8743 29.6894C59.1099 29.6894 59.3165 29.7393 59.4943 29.839C59.672 29.9347 59.8104 30.0803 59.9096 30.2758C60.0088 30.4673 60.0584 30.7087 60.0584 30.9999V32.7233H59.5934V31.0538C59.5934 30.7426 59.5232 30.5072 59.3827 30.3476C59.2463 30.1841 59.0479 30.1023 58.7875 30.1023C58.5188 30.1023 58.3081 30.1881 58.1551 30.3596C58.0063 30.5312 57.9319 30.7845 57.9319 31.1196V32.7233H57.467V29.6894Z" fill="#1B3841"/>
<path fill-rule="evenodd" clip-rule="evenodd" d="M54.5061 29.6894H54.8755V31.9791C54.8755 32.3175 54.8291 33.0161 54.6828 33.2551C54.5364 33.4979 54.324 33.6818 54.0456 33.8069C53.7672 33.9356 53.4281 34 53.0283 34L52.9641 33.6193C53.4674 33.6119 53.7707 33.6131 54.1099 33.2938C54.4897 32.9361 54.4693 32.4078 54.4738 32.0061C54.3938 32.1359 54.285 32.2501 54.1473 32.3488C53.9832 32.4628 53.7708 32.5216 53.5102 32.5253C53.2639 32.5253 53.0479 32.4683 52.8623 32.3543C52.6803 32.2366 52.5375 32.0711 52.434 31.8577C52.334 31.6444 52.2841 31.3943 52.2841 31.1074C52.2841 30.8204 52.334 30.5722 52.434 30.3625C52.5375 30.1492 52.6803 29.9836 52.8623 29.8659C53.0479 29.7482 53.2639 29.6894 53.5102 29.6894C53.6708 29.6894 53.8136 29.7151 53.9385 29.7666C54.0635 29.8144 54.1705 29.8807 54.2598 29.9653C54.349 30.0462 54.4222 30.1381 54.4793 30.2411L54.5061 29.6894ZM52.9533 31.8632C52.7963 31.6756 52.7178 31.4237 52.7178 31.1074C52.7178 30.7947 52.7981 30.5446 52.9587 30.357C53.1193 30.1694 53.3335 30.0756 53.6012 30.0756C53.7654 30.0756 53.9135 30.1179 54.0456 30.2025C54.1777 30.2834 54.2812 30.4011 54.3562 30.5556C54.4347 30.7064 54.474 30.8903 54.474 31.1074C54.474 31.3244 54.4347 31.5101 54.3562 31.6646C54.2812 31.8191 54.1777 31.9368 54.0456 32.0177C53.9135 32.0986 53.7654 32.1391 53.6012 32.1391C53.3299 32.1391 53.114 32.0471 52.9533 31.8632Z" fill="#1B3841"/>
<path fill-rule="evenodd" clip-rule="evenodd" d="M78.261 29.6894H78.6305V31.9791C78.6305 32.3175 78.5841 33.0161 78.4377 33.2551C78.2914 33.4979 78.079 33.6818 77.8006 33.8069C77.5222 33.9356 77.183 34 76.7833 34L76.719 33.6193C77.2223 33.6119 77.5257 33.6131 77.8648 33.2938C78.2447 32.9361 78.2242 32.4078 78.2288 32.0061C78.1488 32.1359 78.04 32.2501 77.9023 32.3488C77.7381 32.4628 77.5257 32.5216 77.2652 32.5253C77.0189 32.5253 76.8029 32.4683 76.6173 32.3543C76.4352 32.2366 76.2925 32.0711 76.1889 31.8577C76.089 31.6444 76.039 31.3943 76.039 31.1074C76.039 30.8204 76.089 30.5722 76.1889 30.3625C76.2925 30.1492 76.4352 29.9836 76.6173 29.8659C76.8029 29.7482 77.0189 29.6894 77.2652 29.6894C77.4258 29.6894 77.5686 29.7151 77.6935 29.7666C77.8184 29.8144 77.9255 29.8807 78.0147 29.9653C78.104 30.0462 78.1772 30.1381 78.2343 30.2411L78.261 29.6894ZM76.7083 31.8632C76.5513 31.6756 76.4727 31.4237 76.4727 31.1074C76.4727 30.7947 76.553 30.5446 76.7137 30.357C76.8743 30.1694 77.0885 30.0756 77.3562 30.0756C77.5204 30.0756 77.6685 30.1179 77.8006 30.2025C77.9326 30.2834 78.0362 30.4011 78.1111 30.5556C78.1897 30.7064 78.2289 30.8903 78.2289 31.1074C78.2289 31.3244 78.1897 31.5101 78.1111 31.6646C78.0362 31.8191 77.9326 31.9368 77.8006 32.0177C77.6685 32.0986 77.5204 32.1391 77.3562 32.1391C77.0849 32.1391 76.8689 32.0471 76.7083 31.8632Z" fill="#1B3841"/>
<path d="M48.406 29.2031C48.2986 29.2031 48.2099 29.168 48.1398 29.0977C48.0698 29.0274 48.0348 28.9407 48.0348 28.8376C48.0348 28.7299 48.0698 28.6408 48.1398 28.5705C48.2099 28.5003 48.2986 28.4651 48.406 28.4651C48.504 28.4651 48.5881 28.5003 48.6581 28.5705C48.7328 28.6408 48.7702 28.7299 48.7702 28.8376C48.7702 28.9407 48.7328 29.0274 48.6581 29.0977C48.5881 29.168 48.504 29.2031 48.406 29.2031Z" fill="#1B3841"/>
<path d="M48.0873 29.6894H48.6651V32.7233H48.0873V29.6894Z" fill="#1B3841"/>
<path d="M98.046 29.2031C97.9386 29.2031 97.8499 29.168 97.7798 29.0977C97.7098 29.0274 97.6748 28.9407 97.6748 28.8376C97.6748 28.7299 97.7098 28.6408 97.7798 28.5705C97.8499 28.5003 97.9386 28.4651 98.046 28.4651C98.1441 28.4651 98.2281 28.5003 98.2981 28.5705C98.3728 28.6408 98.4102 28.7299 98.4102 28.8376C98.4102 28.9407 98.3728 29.0274 98.2981 29.0977C98.2281 29.168 98.1441 29.2031 98.046 29.2031Z" fill="#1B3841"/>
<path d="M97.7273 29.6894H98.3051V32.7233H97.7273V29.6894Z" fill="#1B3841"/>
<path d="M42.4042 31.7789C42.4312 31.897 42.4807 31.9953 42.5526 32.074C42.6246 32.1488 42.7169 32.2059 42.8293 32.2452C42.9463 32.2846 43.0813 32.3043 43.2342 32.3043C43.4727 32.3043 43.6527 32.2649 43.7741 32.1862C43.9001 32.1036 43.9631 32.0012 43.9631 31.8793C43.9631 31.7769 43.9249 31.6943 43.8484 31.6313C43.7764 31.5684 43.6797 31.5172 43.5582 31.4779C43.4367 31.4346 43.3017 31.3972 43.1533 31.3657C43.0363 31.3421 42.9103 31.3146 42.7753 31.2831C42.6404 31.2477 42.5122 31.2005 42.3907 31.1414C42.2692 31.0824 42.1702 31.0057 42.0937 30.9112C42.0173 30.8168 41.979 30.6928 41.979 30.5394C41.979 30.3702 42.0308 30.2226 42.1342 30.0967C42.2422 29.9668 42.3884 29.8665 42.5729 29.7956C42.7619 29.7248 42.9778 29.6894 43.2208 29.6894C43.4997 29.6894 43.7471 29.7425 43.9631 29.8488C44.1835 29.955 44.3365 30.1203 44.422 30.3446L43.9496 30.4862C43.9181 30.3839 43.8596 30.3052 43.7741 30.2501C43.6931 30.195 43.6009 30.1577 43.4974 30.138C43.3985 30.1183 43.2995 30.1085 43.2005 30.1085C42.998 30.1085 42.8338 30.1439 42.7079 30.2147C42.5864 30.2816 42.5257 30.3839 42.5257 30.5217C42.5257 30.5964 42.5459 30.6594 42.5864 30.7105C42.6269 30.7578 42.6831 30.7971 42.7551 30.8286C42.8271 30.8601 42.9126 30.8876 43.0115 30.9112C43.1105 30.9309 43.2185 30.9545 43.3355 30.9821C43.466 31.0096 43.5987 31.045 43.7336 31.0883C43.8686 31.1277 43.9946 31.1808 44.1116 31.2477C44.2285 31.3106 44.323 31.3933 44.395 31.4956C44.4715 31.594 44.5097 31.7179 44.5097 31.8675C44.5097 32.0406 44.4557 32.1921 44.3478 32.322C44.2398 32.4479 44.0891 32.5463 43.8956 32.6171C43.7066 32.6879 43.4862 32.7233 43.2342 32.7233C42.8878 32.7233 42.5999 32.6564 42.3704 32.5226C42.1455 32.3849 41.9948 32.1842 41.9183 31.9206L42.4042 31.7789Z" fill="#1B3841"/>
<path d="M38.0582 32.7233C37.8021 32.7233 37.5733 32.6564 37.3721 32.5226C37.1745 32.3889 37.019 32.2059 36.9055 31.9737C36.7921 31.7415 36.7354 31.4759 36.7354 31.1768C36.7354 30.8896 36.7921 30.6338 36.9055 30.4095C37.019 30.1852 37.1745 30.0101 37.3721 29.8842C37.5697 29.7543 37.7947 29.6894 38.0472 29.6894C38.2961 29.6894 38.5174 29.7484 38.7114 29.8665C38.909 29.9845 39.0627 30.1478 39.1724 30.3564C39.2822 30.5649 39.3335 30.803 39.3261 31.0706C39.3261 31.1139 39.3243 31.1591 39.3207 31.2064C39.317 31.2536 39.3133 31.3047 39.3097 31.3598H37.1855C37.1928 31.5448 37.2349 31.7081 37.3117 31.8497C37.3886 31.9914 37.4892 32.1036 37.6136 32.1862C37.7417 32.2649 37.8862 32.3043 38.0472 32.3043C38.2595 32.3043 38.4388 32.261 38.5851 32.1744C38.7352 32.0878 38.8431 31.9639 38.909 31.8025L39.2658 31.956C39.156 32.2039 38.9968 32.3948 38.7882 32.5285C38.5796 32.6584 38.3363 32.7233 38.0582 32.7233ZM38.876 30.9762C38.8797 30.8069 38.8449 30.6574 38.7718 30.5276C38.7022 30.3977 38.6034 30.2954 38.4754 30.2206C38.3473 30.1459 38.1991 30.1085 38.0308 30.1085C37.8844 30.1085 37.7508 30.1459 37.6301 30.2206C37.5093 30.2954 37.4087 30.3997 37.3282 30.5335C37.2513 30.6633 37.2056 30.8109 37.191 30.9762H38.876Z" fill="#1B3841"/>
<path d="M31.7508 28.3891C32.251 28.3891 32.6779 28.4779 33.0315 28.6554C33.3893 28.8287 33.6631 29.0785 33.8529 29.4046C34.0469 29.7307 34.1439 30.1187 34.1439 30.5686C34.1439 31.0144 34.0469 31.3983 33.8529 31.7203C33.6631 32.0422 33.3893 32.2899 33.0315 32.4633C32.6779 32.6367 32.251 32.7233 31.7508 32.7233H30.2568V28.3891H31.7508ZM31.7508 32.2899C32.3674 32.2899 32.8331 32.1393 33.1479 31.8379C33.4626 31.5366 33.62 31.1135 33.62 30.5686C33.62 30.0196 33.4626 29.5924 33.1479 29.2869C32.8331 28.9773 32.3674 28.8225 31.7508 28.8225H30.7742V32.2899H31.7508Z" fill="#1B3841"/>
<path d="M66.1537 2.60719C64.1497 2.40661 60.8079 6.76842 58.0528 11.8861C57.963 12.0368 57.8799 12.1927 57.8039 12.3535L57.0711 13.9045C56.6595 14.7755 56.3607 15.7005 56.1836 16.6477C56.0471 17.3777 55.0014 17.3888 54.8649 16.6589C54.6859 15.7014 54.3828 14.7714 53.9633 13.8926L53.2634 12.4262C52.3744 10.5638 50.5508 9.34133 48.5127 9.21347C48.3511 9.20334 48.2466 9.37447 48.321 9.51872L55.0396 22.5387C55.1269 22.7045 55.2986 22.8083 55.4857 22.8083C55.6731 22.8083 55.845 22.7042 55.9321 22.5379L62.7727 9.20236C63.5322 7.39027 64.1967 6.71916 66.1537 6.70374C67.3244 6.70374 68.2415 5.74915 68.2415 4.58283C68.2415 3.44798 67.2485 2.60719 66.1537 2.60719Z" fill="#1B3841"/>
</svg>
