<svg width="1182" height="869" viewBox="0 0 1182 869" fill="none" xmlns="http://www.w3.org/2000/svg">
<path d="M747.191 868.827C798.103 868.827 846.969 860.069 892.366 843.977C920.536 833.991 947.371 821.182 972.529 805.888C1074.05 744.176 1148.26 642.022 1172.81 521.792C1178.58 493.566 1181.6 464.343 1181.6 434.414C1181.6 407.507 1179.16 381.172 1174.48 355.619C1157.36 262.182 1110.34 179.196 1043.71 116.938C998.205 74.4149 943.546 41.5621 883.012 21.6545C840.282 7.60216 794.624 0 747.191 0C559.493 5.52385e-06 399.599 119.04 338.884 285.741L360.563 323.29C453.662 269.54 546.285 199.21 648.253 162.148C741.643 128.203 847.168 146.399 924.648 205.842C958.684 231.955 1004.26 252.396 1023.94 290.517C1043.57 328.559 1034.35 377.095 1036.26 419.864C1040.23 508.754 1002.93 597.763 933.477 656.17C851.714 724.927 741.904 770.578 649.58 823.881L671.762 862.302C696.26 866.591 721.464 868.827 747.191 868.827Z" fill="white"/>
<path d="M377.112 722.721C274.479 781.417 164.488 826.188 50.0389 855.856L0 868.827C157.169 784.032 299.532 674.288 421.535 543.876L462.585 499.997L538.04 630.688L377.112 722.721Z" fill="white"/>
</svg>
